<svg clip-rule="evenodd" fill-rule="evenodd" stroke-linejoin="round" stroke-miterlimit="2" viewBox="0 0 1024 600" xmlns="http://www.w3.org/2000/svg"><path d="m322.112 127.9c-.712-1.425-.633-3.117.205-4.471.837-1.358 2.316-2.183 3.908-2.183h223.458c1.596 0 3.075.825 3.913 2.183.837 1.354.912 3.046.2 4.471-22.046 44.1-146.967 293.938-171.313 342.629-.779 1.558-2.371 2.542-4.112 2.542-1.742 0-3.334-.983-4.113-2.542-24.341-48.692-149.262-298.529-171.312-342.629-.713-1.425-.638-3.117.2-4.471.837-1.358 2.316-2.183 3.912-2.183h79.096c1.742 0 3.333.987 4.113 2.541 10.887 21.784 88.104 176.213 88.104 176.213l44.687-89.375h-56.741c-1.742 0-3.334-.983-4.113-2.542-5.929-11.862-30.983-61.966-40.092-80.183z" fill="#ed1c24"/><g fill="#fff"><path d="m137.193 121.246c1.742 0 3.334.987 4.112 2.541 10.891 21.784 88.107 176.213 88.107 176.213s6.375-12.75 10.784-21.567c.779-1.558 2.371-2.541 4.112-2.541 1.742 0 3.334.983 4.113 2.541 9.825 19.65 34.241 68.484 39.546 79.096.645 1.292.645 2.817 0 4.113-6.517 13.033-42.213 84.429-54.442 108.887-.779 1.558-2.371 2.542-4.113 2.542-1.741 0-3.333-.983-4.112-2.542-24.345-48.692-149.266-298.529-171.315-342.629-.712-1.425-.636-3.117.202-4.471.837-1.358 2.317-2.183 3.91-2.183z"/><g fill-rule="nonzero"><path d="m531.875 478.754c-1.358 0-2.646-.604-3.521-1.642-.875-1.041-1.242-2.412-1.008-3.75 7.308-41.754 54.762-312.925 60.954-348.308.383-2.2 2.296-3.808 4.529-3.808h74.083c1.359 0 2.646.604 3.517 1.641.875 1.042 1.246 2.413 1.013 3.75-7.309 41.755-54.763 312.925-60.955 348.309-.387 2.2-2.295 3.808-4.529 3.808z"/><path d="m727.337 125.054c.384-2.2 2.296-3.808 4.53-3.808h180.845c19.863 0 35.088 6.621 45.684 19.862 10.591 13.242 14.233 29.959 10.921 50.15l-16.88 95.834c-3.312 20.521-12.745 37.404-28.304 50.646-15.558 12.908-33.104 19.362-52.633 19.362h-97.433c-2.23 0-4.142 1.604-4.525 3.804-3.188 18.159-16.83 95.888-20.017 114.046-.388 2.2-2.296 3.804-4.529 3.804h-74.084c-1.358 0-2.65-.604-3.52-1.641-.875-1.042-1.242-2.413-1.009-3.75 7.304-41.755 54.763-312.926 60.954-348.309zm56.775 153.1h76.963c6.287 0 9.929-3.312 10.921-9.933l10.429-58.092c.992-6.621-1.654-9.933-7.946-9.933h-76.962z"/></g></g></svg>